inDegrees=no
num_controls=7
num_derivatives=13
num_iterations=137
num_multipliers=7
num_parameters=0
num_slacks=7
num_states=26
objective=6.245660
objective_accelerations=0.739476
objective_balance=0.073448
objective_effort=0.558905
objective_height=4.849232
objective_ligament=0.024598
solver_duration=1385.983367
status=Solve_Succeeded
success=true
DataType=double
version=3
OpenSimVersion=4.4-2022-07-23-0e9fedc
endheader
time	/jointset/ground_pelvis/pelvis_tilt/value	/jointset/ground_pelvis/pelvis_tx/value	/jointset/ground_pelvis/pelvis_ty/value	/jointset/hip_l/hip_flexion_l/value	/jointset/hip_l/hip_adduction_l/value	/jointset/hip_l/hip_rotation_l/value	/jointset/back/lumbar_extension/value	/jointset/patellofemoral_l/patellar_flexion_l/value	/jointset/knee_l/knee_flexion_l/value	/jointset/knee_l/knee_adduction_l/value	/jointset/knee_l/knee_rotation_l/value	/jointset/ankle_l/ankle_angle_l/value	/jointset/subtalar_l/subtalar_angle_l/value	/jointset/ground_pelvis/pelvis_tilt/speed	/jointset/ground_pelvis/pelvis_tx/speed	/jointset/ground_pelvis/pelvis_ty/speed	/jointset/hip_l/hip_flexion_l/speed	/jointset/hip_l/hip_adduction_l/speed	/jointset/hip_l/hip_rotation_l/speed	/jointset/back/lumbar_extension/speed	/jointset/patellofemoral_l/patellar_flexion_l/speed	/jointset/knee_l/knee_flexion_l/speed	/jointset/knee_l/knee_adduction_l/speed	/jointset/knee_l/knee_rotation_l/speed	/jointset/ankle_l/ankle_angle_l/speed	/jointset/subtalar_l/subtalar_angle_l/speed	/forceset/tau_hip_flexion_l	/forceset/tau_hip_adduction_l	/forceset/tau_hip_rotation_l	/forceset/tau_knee_flexion_l	/forceset/tau_ankle_angle_l	/forceset/tau_subtalar_angle_l	/forceset/tau_lumbar_extension	lambda_cid13_p0	lambda_cid13_p1	lambda_cid13_p2	lambda_cid13_p3	lambda_cid13_p4	lambda_cid13_p5	lambda_cid14_p0	/jointset/ground_pelvis/pelvis_tilt/accel	/jointset/ground_pelvis/pelvis_tx/accel	/jointset/ground_pelvis/pelvis_ty/accel	/jointset/hip_l/hip_flexion_l/accel	/jointset/hip_l/hip_adduction_l/accel	/jointset/hip_l/hip_rotation_l/accel	/jointset/back/lumbar_extension/accel	/jointset/patellofemoral_l/patellar_flexion_l/accel	/jointset/knee_l/knee_flexion_l/accel	/jointset/knee_l/knee_adduction_l/accel	/jointset/knee_l/knee_rotation_l/accel	/jointset/ankle_l/ankle_angle_l/accel	/jointset/subtalar_l/subtalar_angle_l/accel	gamma_cid13_p0	gamma_cid13_p1	gamma_cid13_p2	gamma_cid13_p3	gamma_cid13_p4	gamma_cid13_p5	gamma_cid14_p0
0.5	-0.1195121082380406	-0.03932718951163161	0.7810536473869036	1.035697826419132	-0.3147710471191988	-0.08496274768377941	-0.8006127627919361	1.034930093232005	1.034930093231798	-0.03233996205574238	-0.1745109534318602	0.198090428325377	0.05015552812661552	-0.1772903868420073	-0.1354164520924141	-0.5288465341081608	1.881363730410937	-0.01291732818082434	0.4708872999840337	-0.835613366463545	2.09596821277092	2.095968212770257	0.3552116513437314	-8.798286584444306e-06	0.5394907867182638	0.197162481811401	-0.2925625691638289	0.02209284884677556	-0.01017194366257821	-0.2522502751183611	0.05456298984168925	0.05101579948221455	0.340383009169487	-25.18876425527008	-18.48486882295519	3.336890249215322	-9.533267274299345	-695.9567240276129	-74.79528219782236	-5.202342172174261	0.4837387190623977	0.7687154359297016	-0.3238351457636716	-1.655127085504918	0.11770940454717	-0.7319025140182012	2.079478181489185	-1.549061143249104	-1.549061143249089	-0.2461493726503251	0.04391619877620215	-0.5082622868326181	0.09453888645945357	-1.982035200848619e-07	-1.673900335924749e-06	5.966103090710476e-08	-2.001545418221044e-07	-2.200105331721176e-07	-5.978055154832704e-07	-2.173154800645073e-07
0.51	-0.1212604709149115	-0.04064294081818092	0.7757502262911982	1.054425888865318	-0.3148952713942167	-0.08029218073896296	-0.8088641709598601	1.05580905456895	1.055809054568724	-0.02880083594185629	-0.1745108592321776	0.2034586700634148	0.05213026870229231	-0.1723494918051207	-0.1277362755370721	-0.5317140226019189	1.863991021063202	-0.01194476042173946	0.4631916813302515	-0.8145858746326399	2.079528145780581	2.079528145779907	0.3525780580221995	2.001669706084528e-05	0.5340706879907662	0.1977294352000116	-0.2997430805218053	0.02247041725654118	-0.01036064568377562	-0.2567904123378419	0.05269268137145535	0.05089612957926101	0.3474571009064071	-26.1231786296503	-18.13588099932275	3.128870514000803	-9.207118768419051	-701.72627703112	-74.54688512227385	-4.49902626146535	0.5041497869011181	0.767261156315341	-0.2496985744106785	-1.817017518327279	0.08456126979161595	-0.7937538439109257	2.12674355727634	-1.73582460452908	-1.735824604530807	-0.2775399624256092	-0.01877889407494338	-0.5719901729696489	0.02958511640015351	-1.804192458891294e-07	-1.495386960793598e-06	9.308463750678587e-08	-1.819734167366768e-07	-2.016490861388193e-07	-5.395232284161027e-07	-1.979654449621481e-07
0.52	-0.122958447663265	-0.04188197188098297	0.7704218317359115	1.0729724892862	-0.3150102638300144	-0.07569964244127812	-0.8169028324348033	1.076514746210444	1.07651474621027	-0.02528916089116466	-0.1745107054910947	0.2087700895127182	0.05410904112212196	-0.1672132011321399	-0.1200724033429618	-0.5338412260249115	1.845071325358684	-0.01107096033451422	0.4552815705623419	-0.7930640278662473	2.061314273686134	2.061314273685449	0.3497214386798081	3.109991370972826e-06	0.5281263289728256	0.1979688506421569	-0.3069235918798864	0.02284798566619656	-0.01054934770396914	-0.2613305495573113	0.05082237290120144	0.05077645967614852	0.3545311926432527	-27.05689205294506	-17.79292014791856	2.928555294393029	-8.940568353669292	-707.5017214098897	-74.33685107312895	-3.848133964416654	0.5228178462815897	0.7654545636831321	-0.1757781316105973	-1.96452435686123	0.09795587017546735	-0.7748009368436237	2.178349168586931	-1.903822164070903	-1.903822164070881	-0.2907545768221231	0.03477186090919968	-0.6131143449215202	0.02903129716632246	-1.640814499849746e-07	-1.349559096920816e-06	1.127577724388845e-07	-1.691862453145747e-07	-1.823743301288769e-07	-4.887986128597658e-07	-1.81754067845899e-07
0.53	-0.1246041777787393	-0.04304452858605863	0.7650758690463854	1.091322434871354	-0.3151168870446522	-0.07118693115360299	-0.8247239400497491	1.097029675483799	1.097029675483446	-0.0218071127177336	-0.1745106079781256	0.2140195782943876	0.05608873082244623	-0.161905458737937	-0.1124492627278973	-0.5352260178559946	1.824674592715211	-0.01026706673853477	0.4472284672204439	-0.7710936273095518	2.041391246537241	2.041391246537263	0.3466601000207947	1.167196981922995e-05	0.5216931101599711	0.197918209519688	-0.3138120664173736	0.02323179334766858	-0.01077457645208458	-0.2659606021740561	0.04888293153517471	0.05047699177908551	0.3612863503401284	-28.02213314154149	-17.35819865435888	2.704297375954984	-8.526714241591339	-713.1814558306697	-73.97479946189428	-3.249191935887295	0.5388441593806739	0.7591625575711833	-0.1010700553154721	-2.113740483120071	0.06967736851004525	-0.8255704735632672	2.215965671277332	-2.078558509618212	-2.078558509512408	-0.318238953660697	-0.01680136710394085	-0.6702342845361515	-0.02955451876943727	-1.480144753423086e-07	-1.218565543069854e-06	1.1932020396706e-07	-1.583222983318432e-07	-1.643435647618004e-07	-4.442697416121372e-07	-1.658781325474667e-07
0.54	-0.1261960121256175	-0.04413117013555513	0.7597198103692591	1.10946111457702	-0.3152158570705043	-0.06675575198750726	-0.8323234276247193	1.117336971381789	1.11733697138131	-0.01835656101943028	-0.174510564792042	0.2192023731609086	0.05806642557118156	-0.1564340474079973	-0.104889372227132	-0.5358604235454436	1.802818149470535	-0.009540322574482424	0.4389751462505165	-0.7487400198701197	2.01978759861557	2.019787598616299	0.343422143632974	-7.755388391454333e-06	0.5147875459443819	0.1975698603245865	-0.3207005409550004	0.02361560102902906	-0.01099980519952263	-0.2705906547907903	0.04694349016913966	0.05017752388187102	0.3680415080368972	-28.98874776510719	-16.92826675223347	2.486548211856046	-8.16461469809799	-718.8911960665528	-73.64904399111396	-2.701694795521301	0.5555516334291616	0.7528045408230934	-0.02570090328377472	-2.256466477101622	0.08252598379024456	-0.814844462449496	2.254990545134431	-2.23994631862667	-2.239946318626618	-0.3260781225835328	0.02917399357741809	-0.7075834254687641	-0.03051031736026051	-1.322471327336304e-07	-1.103984417328138e-06	1.113771764100437e-07	-1.495861741330961e-07	-1.476891294676818e-07	-4.065957364081859e-07	-1.503733243666193e-07
0.55	-0.1277323986503982	-0.04514258341572664	0.7543611732527176	1.12737409185807	-0.3153078575047825	-0.06240784387668889	-0.8396975241104473	1.137419991121159	1.137419991120811	-0.0149392751418153	-0.1745106020427654	0.2243138845068753	0.0600392699979946	-0.1508211202905046	-0.09740873336002503	-0.5357392614504046	1.779539643036832	-0.008873266320891186	0.4305800955515766	-0.7260255528285613	1.996545667350772	1.996545667351262	0.3400014180517659	-3.997325562565712e-06	0.5074457504930412	0.1969490471713313	-0.3273598763925178	0.02390373607726667	-0.01125097036059691	-0.2752941857884768	0.04493934821262139	0.04979836846988742	0.3745583825910746	-29.98213052301084	-16.45693444996797	2.259794472173056	-7.697533749471418	-724.5464785065614	-73.27261928496716	-2.205378804049303	0.5674725562620048	0.7433471620119827	0.05015779170942801	-2.399203448428127	0.05682780453740597	-0.8559359249484277	2.28773345075759	-2.40689043357084	-2.406890433606871	-0.3552755194145298	-0.0146628873515523	-0.7578732417213447	-0.08520948317541999	-1.167592806469954e-07	-9.89926337557599e-07	1.050121828324141e-07	-1.402724615899969e-07	-1.314383279430382e-07	-3.682388785885866e-07	-1.35133884151353e-07
